<svg xmlns="http://www.w3.org/2000/svg" viewBox="0 0 24 24"><g data-name="Hard Rain"><path fill="none" stroke="#303c42" stroke-linecap="round" stroke-linejoin="round" d="M1.94 21.7h0l1.56-1.2v2a1 1 0 0 1-2 0 1 1 0 0 1 .44-.8ZM5.94 19.7h0l1.56-1.2v2a1 1 0 0 1-2 0 1 1 0 0 1 .44-.8ZM9.94 21.7h0l1.56-1.2v2a1 1 0 0 1-2 0 1 1 0 0 1 .44-.8ZM13.94 19.7h0l1.56-1.2v2a1 1 0 0 1-2 0 1 1 0 0 1 .44-.8ZM17.94 21.7h0l1.56-1.2v2a1 1 0 0 1-2 0 1 1 0 0 1 .44-.8ZM16.49 5.26A4.5 4.5 0 1 1 19 13.5h-1.28M2.65 11a3.46 3.46 0 0 1-.15-1A3.5 3.5 0 0 1 6 6.5"/><path fill="none" stroke="#303c42" stroke-linecap="round" stroke-linejoin="round" d="M5 6.61a6.49 6.49 0 0112.59-1.88M15.5 12.5a3 3 0 010 6h-11A4 4 0 117 11.38M6 10.79a5.49 5.49 0 0110.52 1.89"/></g></svg>