<svg xmlns="http://www.w3.org/2000/svg" viewBox="0 0 24 24"><path fill="none" stroke="#303c42" stroke-linecap="round" stroke-linejoin="round" d="M14.49 10.26A4.5 4.5 0 1 1 17 18.5H4a3.5 3.5 0 1 1 0-7m-1 .16a6.49 6.49 0 0 1 12.59-1.93m-3.81-3.8a5 5 0 1 1 8.42 4.91M23.5 7.5h-2M12.96 3.96l-1.41-1.41M16.5 2.5v-2M20.04 3.96l1.41-1.41M9.5 22a1.5 1.5 0 0 0 3 0c0-.83-1.5-3.5-1.5-3.5S9.5 21.17 9.5 22zm-2 .5a6.61 6.61 0 0 0-1-2 6.61 6.61 0 0 0-1 2 1 1 0 1 0 2 0zm9-2a6.61 6.61 0 0 0-1-2 6.61 6.61 0 0 0-1 2 1 1 0 0 0 2 0z" data-name="Rainy Day"/></svg>